<?xml version="1.0" standalone="no"?><!DOCTYPE svg PUBLIC "-//W3C//DTD SVG 1.1//EN" "http://www.w3.org/Graphics/SVG/1.1/DTD/svg11.dtd"><svg t="1674970962003" class="icon" viewBox="0 0 1024 1024" version="1.1" xmlns="http://www.w3.org/2000/svg" p-id="3498" xmlns:xlink="http://www.w3.org/1999/xlink" width="256" height="256"><path d="M907.690667 766.293333a128 128 0 0 1-128 128H247.466667a128 128 0 0 1-128-128V256a128 128 0 0 1 128-128h532.224a128 128 0 0 1 128 128v325.973333a27.733333 27.733333 0 1 1-55.466667 0V256a72.533333 72.533333 0 0 0-72.533333-72.533333H247.466667A72.533333 72.533333 0 0 0 174.933333 256v510.293333a72.533333 72.533333 0 0 0 72.533334 72.533334h532.224a72.533333 72.533333 0 0 0 72.533333-72.533334c0-13.909333 11.306667-25.258667 25.258667-25.258666h4.949333c13.952 0 25.258667 11.349333 25.258667 25.301333z" fill="#18a058" p-id="3499"></path><path d="M736.896 653.482667h54.741333a28.458667 28.458667 0 0 1 0 56.917333H736.853333v162.005333h-56.917333V710.4h-140.117333v162.005333h-56.96V710.4H360.32v162.005333H303.36V710.4H119.466667v-56.917333h183.893333v-118.229334H119.466667V478.293333h183.893333V360.064H119.466667V303.146667h744.405333V360.106667h-126.976v118.272h126.976v56.917333h-126.976v118.186667z m-56.917333 0v-118.229334h-140.117334v118.186667h140.117334z m-197.077334 0v-118.229334H360.32v118.186667h122.581333zM360.32 478.293333h122.581333V360.064H360.32v118.272z m179.541333 0h140.117334V360.064h-140.117334v118.272z" fill="#18a058" p-id="3500"></path></svg>